<svg xmlns:dc="http://purl.org/dc/elements/1.1/" xmlns:cc="http://creativecommons.org/ns#" xmlns:rdf="http://www.w3.org/1999/02/22-rdf-syntax-ns#" xmlns:svg="http://www.w3.org/2000/svg" xmlns="http://www.w3.org/2000/svg" xmlns:sodipodi="http://sodipodi.sourceforge.net/DTD/sodipodi-0.dtd" xmlns:inkscape="http://www.inkscape.org/namespaces/inkscape" version="1.1" x="0px" y="0px" viewBox="0 0 100 125"><g transform="translate(0,-952.36218)"><path style="text-indent:0;text-transform:none;direction:ltr;block-progression:tb;baseline-shift:baseline;color:#000000;enable-background:accumulate;" d="m 29.78125,965.37668 a 1.0001,0.99990401 0 0 0 -0.75,0.71861 l -5.5,19.27747 -15.53125,0 a 1.0001,0.99990401 0 0 0 -0.1875,0 A 1.0001,0.99990401 0 0 0 7,986.37257 l 0,51.98983 a 1.0001,0.99990401 0 0 0 1,0.9998 l 64,0 a 1.0001,0.99990401 0 0 0 1,-0.9998 l 0,-4.4054 4.71875,1.3435 a 1.0001,0.99990401 0 0 0 1.25,-0.6874 l 14,-50.98999 A 1.0001,0.99990401 0 0 0 92.25,982.40459 l -62,-16.99666 a 1.0001,0.99990401 0 0 0 -0.46875,-0.0312 z m 0.90625,2.18707 60.09375,16.46553 L 77.3125,1033.1134 73,1031.8636 73,986.37257 a 1.0001,0.99990401 0 0 0 -1,-0.99981 l -46.40625,0 5.09375,-17.80901 z M 9,987.37237 l 62,0 0,43.33523 -14.25,-16.0281 a 1.0001,0.99990401 0 0 0 -0.90625,-0.3124 1.0001,0.99990401 0 0 0 -0.28125,0.094 L 35,1024.74 l -8.25,-9.0607 a 1.0001,0.99990401 0 0 0 -0.90625,-0.3124 1.0001,0.99990401 0 0 0 -0.28125,0.094 L 9,1023.7402 9,987.37237 z m 29,9.99804 c -3.854159,0 -7,3.14529 -7,6.99859 0,3.8534 3.145845,6.9987 7,6.9987 3.854147,0 7,-3.1453 7,-6.9987 0,-3.8533 -3.145849,-6.99859 -7,-6.99859 z m 0,1.99961 c 2.773257,0 5,2.22628 5,4.99898 0,2.7728 -2.226739,4.9991 -5,4.9991 -2.773273,0 -5,-2.2263 -5,-4.9991 0,-2.7727 2.226731,-4.99898 5,-4.99898 z m 17.75,17.21538 15.15625,17.0279 A 1.0001,0.99990401 0 0 0 71,1033.7383 l 0,3.6243 -24.5625,0 a 1.0001,0.99990401 0 0 0 -0.0625,-0.094 l -10,-10.9978 19.375,-9.6856 z m -30,0.9998 18.03125,19.7774 -34.78125,0 0,-11.404 16.75,-8.3734 z" fill="white" fill-opacity="1" marker="none" visibility="visible" display="inline" overflow="visible"/></g></svg>
