<svg id="Layer_1" data-name="Layer 1" xmlns="http://www.w3.org/2000/svg" viewBox="0 0 371.16 188.11"><defs><style>.cls-1{fill:#7C86B0;}.cls-2{fill: #ffffff;}</style></defs><title>incolud_LOGO</title><path class="cls-1" d="M67.06,68.06H86.5a0,0,0,0,1,0,0v10a0,0,0,0,0,.09,0,17.27,17.27,0,0,1,4.15-7.8,10.67,10.67,0,0,1,8-3.12q8.27,0,12.23,5.08t4,14.46v63a0,0,0,0,1,0,0H95.87a0,0,0,0,1-.05,0v-61a9.23,9.23,0,0,0-1.06-4.58,3.52,3.52,0,0,0-3.3-1.9,3.8,3.8,0,0,0-4,2.74,22.68,22.68,0,0,0-1,7.31v57.46a0,0,0,0,1,0,0H67.06a0,0,0,0,1,0,0V68.11A0,0,0,0,1,67.06,68.06Z"/><path class="cls-2" d="M128.59,144.1q-6.32-6.58-6.31-18.09V81.79q0-14.28,5.69-21.55T145.84,53q10.6,0,17.08,5.8t6.48,16.75V92a.05.05,0,0,1-.05,0h-19a.05.05,0,0,1,0,0V77.89q0-4.14-1-5.7a3.79,3.79,0,0,0-3.46-1.56,3.62,3.62,0,0,0-3.52,1.79,11.5,11.5,0,0,0-.95,5.24v48.13q0,3.79,1.12,5.53a3.72,3.72,0,0,0,3.35,1.73q4.46,0,4.46-7.26V108.53a0,0,0,0,1,0,0h19.22a0,0,0,0,1,.05,0v18q0,24.12-24.23,24.12Q134.91,150.69,128.59,144.1Z"/><path class="cls-2" d="M175.65,149.75V53.37a0,0,0,0,1,0,0h19.78a0,0,0,0,1,.05,0v96.38a0,0,0,0,1-.05,0H175.7A0,0,0,0,1,175.65,149.75Z"/><path class="cls-2" d="M202.67,125.34V92.52q0-11.62,6.53-18.49t17.92-6.86q11.38,0,17.92,6.86t6.53,18.49v32.82q0,25.35-24.45,25.35T202.67,125.34Zm27.91,8.6a8.21,8.21,0,0,0,1.12-4.58v-40q0-7.15-4.58-7.15t-4.58,7.15v40a8.12,8.12,0,0,0,1.12,4.58,4.42,4.42,0,0,0,6.92,0Z"/><path class="cls-2" d="M262,145.21q-3.4-5.46-3.4-16.3V68.11a0,0,0,0,1,0,0h19.56a0,0,0,0,1,.05,0v61.08c0,2.28.35,3.87,1.06,4.8a3.83,3.83,0,0,0,3.29,1.4q3,0,3.8-2.51a25.62,25.62,0,0,0,.78-7.2V125l.11-56.89a0,0,0,0,1,.05,0h19.33a0,0,0,0,1,.05,0v81.64a0,0,0,0,1-.05,0H287.24a0,0,0,0,1-.05,0v-8.42a0,0,0,0,0-.09,0q-2,5-4.6,7.14t-7.93,2.24Q265.42,150.69,262,145.21Z"/><path class="cls-2" d="M319.86,147.28a16.59,16.59,0,0,1-4.81-9,73.32,73.32,0,0,1-1.17-14.46l.22-36.85q0-8.7,4.42-14.24T331,67.17q7.85,0,11.76,5.14s.08,0,.08,0V53.37a0,0,0,0,1,.05,0h19.44a0,0,0,0,1,0,0v96.38a0,0,0,0,1,0,0H342.85a0,0,0,0,1-.05,0v-8.4a0,0,0,0,0-.09,0,16,16,0,0,1-4.43,6.95,11.54,11.54,0,0,1-7.65,2.4Q323.48,150.69,319.86,147.28Zm22-14.74a26.19,26.19,0,0,0,.9-7.64V90.73a16.14,16.14,0,0,0-1-6,3.61,3.61,0,0,0-3.58-2.46,3.75,3.75,0,0,0-3.85,2.29,16.57,16.57,0,0,0-.95,6.2v34.39q0,10.27,4.69,10.27A3.65,3.65,0,0,0,341.9,132.54Z"/><path class="cls-1" d="M66,47.92,51.85,33.77a2.08,2.08,0,0,0-1.47-.61,2.11,2.11,0,0,0-1.48.61L34.76,47.92a2.42,2.42,0,0,0-.52,2.54A2.06,2.06,0,0,0,36.1,51.6h5a0,0,0,0,1,0,0v98.1s0,0,0,0H59.59a0,0,0,0,0,0,0V51.65a0,0,0,0,1,0,0h5a2,2,0,0,0,1.86-1.14A2.4,2.4,0,0,0,66,47.92Z"/><path class="cls-2" d="M49,169.38H45.29v-1.14a2.21,2.21,0,0,0-.14-1,.52.52,0,0,0-.47-.21.61.61,0,0,0-.55.29,1.74,1.74,0,0,0-.18.89,2.53,2.53,0,0,0,.21,1.16,3,3,0,0,0,1.12.94,11.38,11.38,0,0,1,3.36,2.59,6,6,0,0,1,.69,3.27,5.84,5.84,0,0,1-.38,2.42,3,3,0,0,1-1.49,1.3,5.84,5.84,0,0,1-2.55.53,5.69,5.69,0,0,1-2.74-.61,3,3,0,0,1-1.48-1.54,7.79,7.79,0,0,1-.35-2.67v-1H44v1.87a2.54,2.54,0,0,0,.16,1.11.6.6,0,0,0,.55.24.65.65,0,0,0,.6-.31,1.79,1.79,0,0,0,.19-.93,2.85,2.85,0,0,0-.37-1.77,11.22,11.22,0,0,0-1.87-1.39,18,18,0,0,1-2-1.44,3.24,3.24,0,0,1-.8-1.23,5.42,5.42,0,0,1-.32-2,5.62,5.62,0,0,1,.45-2.58,3,3,0,0,1,1.46-1.27,5.76,5.76,0,0,1,2.43-.46,6.46,6.46,0,0,1,2.65.5,2.85,2.85,0,0,1,1.45,1.27,6.85,6.85,0,0,1,.35,2.59Z"/><path class="cls-2" d="M66,164.73v15.35H62v-6.45H60.79v6.45h-4V164.73h4v5.49H62v-5.49Z"/><path class="cls-2" d="M80.69,164.73,83,180.08H78.89l-.22-2.76H77.25L77,180.08H72.88l2-15.35Zm-2.12,9.87c-.2-1.74-.41-3.89-.61-6.45-.4,2.94-.66,5.09-.76,6.45Z"/><path class="cls-2" d="M89.86,164.73h2.82a21.13,21.13,0,0,1,3.83.22,2.65,2.65,0,0,1,1.63,1.11,5.07,5.07,0,0,1,.63,2.86,4.45,4.45,0,0,1-.45,2.41,2.32,2.32,0,0,1-1.75.74,3,3,0,0,1,1.59.78,2.5,2.5,0,0,1,.51.91,13.75,13.75,0,0,1,.1,2.27v4.05H95.06V175a3.58,3.58,0,0,0-.19-1.53c-.13-.19-.47-.29-1-.29v6.92h-4Zm4,2.63v3.41a1.67,1.67,0,0,0,.94-.19c.18-.12.27-.52.27-1.19v-.85a1.33,1.33,0,0,0-.26-1A1.49,1.49,0,0,0,93.85,167.36Z"/><path class="cls-2" d="M106.53,164.73h6.65v3.07h-2.66v2.91H113v2.92h-2.49V177h2.93v3.07h-6.92Z"/><path class="cls-1" d="M144.69,164.73l-1.78,15.35h-5q-.69-3.54-1.21-8.05-.24,1.93-1.11,8.05h-5l-1.78-15.35h3.87l.42,5.36.41,5.17q.23-4,1.11-10.53h4.14c.05.45.2,2.14.44,5.06l.44,5.84q.33-5.56,1.11-10.9Z"/><path class="cls-1" d="M153,164.73v15.35h-4V164.73Z"/><path class="cls-1" d="M166.09,164.73v3.07h-2.37v12.28h-4V167.8h-2.36v-3.07Z"/><path class="cls-1" d="M179.67,164.73v15.35h-4v-6.45h-1.19v6.45h-4V164.73h4v5.49h1.19v-5.49Z"/><path class="cls-1" d="M199.73,164.73v3.07h-2.37v12.28h-4V167.8H191v-3.07Z"/><path class="cls-1" d="M213.31,164.73v15.35h-4v-6.45h-1.2v6.45h-4V164.73h4v5.49h1.2v-5.49Z"/><path class="cls-1" d="M227.52,173.72a31,31,0,0,1-.11,3.27,3.65,3.65,0,0,1-2.23,3,5.54,5.54,0,0,1-2.27.43,5.78,5.78,0,0,1-2.22-.4,3.67,3.67,0,0,1-1.58-1.21,3.76,3.76,0,0,1-.71-1.76c-.07-.63-.11-1.73-.11-3.31v-2.63c0-1.54,0-2.63.11-3.27a3.67,3.67,0,0,1,.68-1.76,3.73,3.73,0,0,1,1.55-1.23,6.35,6.35,0,0,1,4.49,0,3.69,3.69,0,0,1,2.29,3c.07.64.11,1.74.11,3.32Zm-4-5.05a4.72,4.72,0,0,0-.12-1.37.48.48,0,0,0-.49-.29.54.54,0,0,0-.47.24,3.2,3.2,0,0,0-.17,1.42v7.17a7.21,7.21,0,0,0,.11,1.65.47.47,0,0,0,.51.31.49.49,0,0,0,.52-.36,8,8,0,0,0,.11-1.71Z"/><path class="cls-1" d="M241,169.38h-3.71v-1.14a2.21,2.21,0,0,0-.14-1,.52.52,0,0,0-.47-.21.61.61,0,0,0-.55.29,1.74,1.74,0,0,0-.18.89,2.53,2.53,0,0,0,.21,1.16,3,3,0,0,0,1.12.94,11.38,11.38,0,0,1,3.36,2.59,6,6,0,0,1,.69,3.27,5.84,5.84,0,0,1-.38,2.42,3,3,0,0,1-1.49,1.3,5.84,5.84,0,0,1-2.55.53,5.69,5.69,0,0,1-2.74-.61,3,3,0,0,1-1.48-1.54,7.79,7.79,0,0,1-.35-2.67v-1H236v1.87a2.54,2.54,0,0,0,.16,1.11.6.6,0,0,0,.55.24.65.65,0,0,0,.6-.31,1.79,1.79,0,0,0,.19-.93,2.85,2.85,0,0,0-.37-1.77,11.22,11.22,0,0,0-1.87-1.39,18,18,0,0,1-2-1.44,3.24,3.24,0,0,1-.8-1.23,5.42,5.42,0,0,1-.32-2,5.62,5.62,0,0,1,.45-2.58,3,3,0,0,1,1.46-1.27,5.76,5.76,0,0,1,2.43-.46,6.46,6.46,0,0,1,2.65.5,2.85,2.85,0,0,1,1.45,1.27,6.85,6.85,0,0,1,.35,2.59Z"/><path class="cls-1" d="M246,164.73h6.65v3.07H250v2.91h2.49v2.92H250V177H253v3.07H246Z"/><path class="cls-1" d="M273,164.73l-2.91,9.79v5.56h-3.7v-5.56l-2.8-9.79h3.66c.57,3,.9,5,1,6.05.22-1.64.59-3.65,1.11-6.05Z"/><path class="cls-1" d="M286.31,173.72c0,1.54,0,2.63-.1,3.27a3.68,3.68,0,0,1-.69,1.76A3.64,3.64,0,0,1,284,180a5.54,5.54,0,0,1-2.27.43,5.73,5.73,0,0,1-2.21-.4,3.69,3.69,0,0,1-2.29-3,30.53,30.53,0,0,1-.12-3.31v-2.63c0-1.54,0-2.63.11-3.27a3.67,3.67,0,0,1,.68-1.76,3.8,3.8,0,0,1,1.55-1.23,6.35,6.35,0,0,1,4.49,0,3.61,3.61,0,0,1,1.58,1.21,3.66,3.66,0,0,1,.71,1.75,31.65,31.65,0,0,1,.11,3.32Zm-4-5.05a4.72,4.72,0,0,0-.12-1.37.46.46,0,0,0-.48-.29.55.55,0,0,0-.48.24,3.36,3.36,0,0,0-.17,1.42v7.17a7.21,7.21,0,0,0,.11,1.65.47.47,0,0,0,.51.31.49.49,0,0,0,.52-.36,7.38,7.38,0,0,0,.11-1.71Z"/><path class="cls-1" d="M300.37,164.73V175a16.89,16.89,0,0,1-.12,2.45,3.31,3.31,0,0,1-.67,1.45,3.55,3.55,0,0,1-1.47,1.13,5.67,5.67,0,0,1-2.16.38,6.19,6.19,0,0,1-2.43-.45,3.7,3.7,0,0,1-1.57-1.19,3.35,3.35,0,0,1-.62-1.54c-.06-.54-.09-1.68-.09-3.41v-9.08h4v11.51a4.56,4.56,0,0,0,.11,1.28.42.42,0,0,0,.44.28.46.46,0,0,0,.49-.31,5.8,5.8,0,0,0,.11-1.45V164.73Z"/><path class="cls-1" d="M321.64,171.41h-4v-2.66a5.17,5.17,0,0,0-.12-1.46A.56.56,0,0,0,317,167a.59.59,0,0,0-.63.35,5.68,5.68,0,0,0-.13,1.51V176a5.33,5.33,0,0,0,.13,1.46.69.69,0,0,0,1.19,0,5.72,5.72,0,0,0,.13-1.6v-1.93h4v.59a12,12,0,0,1-.33,3.38,3.46,3.46,0,0,1-1.49,1.75,5.11,5.11,0,0,1-2.84.75,5.92,5.92,0,0,1-2.89-.63,3.12,3.12,0,0,1-1.51-1.76,11.45,11.45,0,0,1-.37-3.38v-4.49a18.79,18.79,0,0,1,.12-2.48,3.44,3.44,0,0,1,.67-1.6,3.79,3.79,0,0,1,1.57-1.21,6.42,6.42,0,0,1,5.21.24,3.25,3.25,0,0,1,1.5,1.7,10.22,10.22,0,0,1,.36,3.17Z"/><path class="cls-1" d="M333.47,164.73l2.28,15.35h-4.08l-.21-2.76H330l-.24,2.76h-4.13l2-15.35Zm-2.12,9.87q-.3-2.61-.61-6.45c-.4,2.94-.66,5.09-.76,6.45Z"/><path class="cls-1" d="M339.92,164.73h2.83a21,21,0,0,1,3.82.22,2.62,2.62,0,0,1,1.63,1.11,5.07,5.07,0,0,1,.63,2.86,4.57,4.57,0,0,1-.44,2.41,2.34,2.34,0,0,1-1.76.74,3.08,3.08,0,0,1,1.6.78,2.32,2.32,0,0,1,.5.91,13.75,13.75,0,0,1,.1,2.27v4.05h-3.7V175a3.52,3.52,0,0,0-.2-1.53c-.13-.19-.47-.29-1-.29v6.92h-4Zm4,2.63v3.41a1.71,1.71,0,0,0,.95-.19c.18-.12.27-.52.27-1.19v-.85a1.33,1.33,0,0,0-.26-1A1.54,1.54,0,0,0,343.91,167.36Z"/><path class="cls-1" d="M353.87,164.73h6.66v3.07h-2.67v2.91h2.5v2.92h-2.5V177h2.93v3.07h-6.92Z"/></svg>
