<svg id="Layer_1" data-name="Layer 1" xmlns="http://www.w3.org/2000/svg" viewBox="0 0 368.32 158.39"><defs><style>.cls-1{fill:#4f61ac;}.cls-2{fill:#ffffff;}</style></defs><title>incolud_LOGO</title><path class="cls-1" d="M86.22,28.94A18.67,18.67,0,0,0,68,14.14a20,20,0,0,0-2.21.14,18.67,18.67,0,0,0-33,.19A18.65,18.65,0,0,0,16,29.08a18.65,18.65,0,0,0,3.14,36H35.06V58H30.34A4.71,4.71,0,0,1,27,50L48,28.17a4.71,4.71,0,0,1,6.68,0l21,21.9a4.7,4.7,0,0,1-3.36,8H67.56v7h5.16l10.92,0a18.66,18.66,0,0,0,2.58-36.07Z"/><path class="cls-1" d="M68,70.07H87.49V80.45a17.5,17.5,0,0,1,4.24-8.15,10.67,10.67,0,0,1,8-3.12q8.27,0,12.23,5.08t4,14.46V151.8H96.76V90.73a9.21,9.21,0,0,0-1.07-4.58,3.5,3.5,0,0,0-3.29-1.9,3.8,3.8,0,0,0-4,2.74,22.68,22.68,0,0,0-1,7.31v57.5H68Z"/><path class="cls-2" d="M129.52,146.11q-6.3-6.59-6.3-18.09V83.8q0-14.3,5.69-21.55T146.77,55q10.62,0,17.09,5.8t6.48,16.75V94.07h-19.1V79.89q0-4.12-1-5.69a3.81,3.81,0,0,0-3.47-1.56,3.6,3.6,0,0,0-3.51,1.78,11.54,11.54,0,0,0-.95,5.25V127.8q0,3.8,1.12,5.52a3.69,3.69,0,0,0,3.34,1.74c3,0,4.47-2.43,4.47-7.26V110.49h19.32v18.09q0,24.12-24.23,24.12Q135.83,152.7,129.52,146.11Z"/><path class="cls-2" d="M176.59,151.8V55.33h19.87V151.8Z"/><path class="cls-2" d="M203.61,127.35V94.52q0-11.61,6.53-18.48t17.92-6.86q11.38,0,17.92,6.86t6.53,18.48v32.83q0,25.35-24.45,25.35T203.61,127.35Zm27.91,8.6a8.21,8.21,0,0,0,1.11-4.58v-40q0-7.14-4.57-7.14t-4.58,7.14v40A8.12,8.12,0,0,0,224.6,136a4.42,4.42,0,0,0,6.92,0Z"/><path class="cls-2" d="M263,147.22q-3.4-5.46-3.41-16.3V70.07h19.65V131.2c0,2.27.36,3.87,1.07,4.8a3.83,3.83,0,0,0,3.29,1.4q3,0,3.8-2.51a25.62,25.62,0,0,0,.78-7.2V127l.11-56.94h19.43V151.8H288.13v-8.71q-2,5.15-4.69,7.37t-7.93,2.24Q266.36,152.7,263,147.22Z"/><path class="cls-2" d="M320.79,149.29a16.64,16.64,0,0,1-4.8-9,73.14,73.14,0,0,1-1.17-14.45L315,88.94q0-8.72,4.41-14.24t12.45-5.52q7.94,0,11.84,5.24V55.33h19.54V151.8H343.74v-8.71a16.15,16.15,0,0,1-4.52,7.2,11.51,11.51,0,0,1-7.65,2.41Q324.42,152.7,320.79,149.29Zm22-14.74a26.22,26.22,0,0,0,.9-7.65V92.73a15.91,15.91,0,0,0-1-6,3.59,3.59,0,0,0-3.57-2.46,3.77,3.77,0,0,0-3.86,2.29,16.57,16.57,0,0,0-.94,6.19v34.4q0,10.26,4.69,10.27A3.66,3.66,0,0,0,342.84,134.55Z"/><path class="cls-1" d="M67.06,50.05,52.79,35.78a2.09,2.09,0,0,0-2.95,0L35.57,50.05A2.08,2.08,0,0,0,37,53.61h5V151.8H60.58V53.61h5a2.08,2.08,0,0,0,1.47-3.56Z"/></svg>
