<svg xmlns="http://www.w3.org/2000/svg" xmlns:xlink="http://www.w3.org/1999/xlink" version="1.1" x="0px" y="0px" viewBox="0 0 48 60" style="enable-background:new 0 0 48 48;" xml:space="preserve"><path stroke="#fff" d="M33.62,28.53c0.1,0.1,0.23,0.15,0.35,0.15s0.26-0.05,0.35-0.15c4.09-4.09,4.09-10.76,0-14.85c-0.2-0.2-0.51-0.2-0.71,0  s-0.2,0.51,0,0.71c3.7,3.7,3.7,9.73,0,13.44C33.42,28.01,33.42,28.33,33.62,28.53z"/><path stroke="#fff" d="M9.58,41.25c0.1,0.1,0.23,0.15,0.35,0.15s0.26-0.05,0.35-0.15l6.36-6.36c0.09-0.09,0.15-0.22,0.15-0.35  s-0.05-0.26-0.15-0.35l-1.06-1.06l1.43-1.43c2.69,2.52,6.18,3.91,9.88,3.91c3.87,0,7.51-1.51,10.25-4.25  c2.74-2.74,4.25-6.38,4.25-10.25c0-3.87-1.51-7.51-4.25-10.25C34.41,8.11,30.77,6.6,26.9,6.6s-7.51,1.51-10.25,4.25  c-5.53,5.53-5.64,14.46-0.34,20.13l-1.43,1.43l-1.06-1.06c-0.2-0.2-0.51-0.2-0.71,0l-6.36,6.36c-0.2,0.2-0.2,0.51,0,0.71L9.58,41.25  z M17.35,11.55C19.9,9,23.29,7.6,26.9,7.6c3.61,0,7,1.4,9.55,3.95s3.95,5.94,3.95,9.55c0,3.61-1.4,7-3.95,9.55s-5.94,3.95-9.55,3.95  c-3.61,0-7-1.4-9.55-3.95C12.09,25.38,12.09,16.82,17.35,11.55z M13.46,32.41l2.12,2.12l-5.66,5.66l-2.12-2.12L13.46,32.41z"/></svg>
