<svg xmlns="http://www.w3.org/2000/svg" xmlns:xlink="http://www.w3.org/1999/xlink" version="1.0" x="0px" y="0px"
     viewBox="0 0 100 125" enable-background="new 0 0 100 100" xml:space="preserve"><path d="M74.2133789,45.8291016c-0.463501-1.4321289-1.5767212-2.4293213-3.0665894-2.8753052  c1.7175903-1.5036621,2.1989136-4.6126709,2.1989136-6.2003784c0-10.0019531-2.9921875-16.3515625-5.003418-18.1791992  l-0.0004883-0.0004883l-0.3374023-0.3134766c-7.597168-7.1235352-16.9560547-9.0268555-27.8149414-5.6640625  c-3.7753906,1.1713867-9.2319336,5.3891602-10.6162109,8.2080078c-0.3730469,0.7651367-3.6557617,7.6318359-3.9550781,13.0092773  c-0.1982422,3.5605469-0.0449219,8.4589844,3.5566406,9.8823242c0.0056763,0.0022583,0.0113525,0.0101929,0.0170288,0.0129395  c-1.9215088,0.4464722-3.0018311,1.6563721-3.3890991,2.8503418c-0.5273438,1.6269531-0.0400391,4.0268555,2.9042969,5.8813477  c1.3867188,0.8813477,2.8168945,0.7192383,3.6713867,0.6206055c0.1035156-0.0117188,0.2275391-0.0258789,0.3320313-0.034668  c2.3457031,3.2978516,4.2490234,4.559082,6.1508789,5.6552734c2.9604492,1.7050781,6.2143555,2.2241211,7.7255859,2.3793945  c0.0151367,0.5893555-0.0083008,1.4960938-0.0541992,2.3857422c-0.4384766,0.0620117-0.9750977,0.1274414-1.5009766,0.1914063  c-0.8760376,0.1061401-1.5635986,0.1939697-2.1043091,0.2814941l-0.5280151-0.3615723  c-0.0231934-0.0158691-0.0504761-0.0178833-0.0744629-0.0315552c-0.0615845-0.0352783-0.1245117-0.0598755-0.1921997-0.0814209  c-0.0584717-0.0184937-0.1143799-0.03479-0.1742554-0.0422363c-0.0638428-0.0081787-0.1261597-0.0059814-0.1915283-0.0014648  c-0.067627,0.0046387-0.1314087,0.0130005-0.1967163,0.0311279c-0.027832,0.0076904-0.0559082,0.0029907-0.0834351,0.0132446  c-4.847168,1.7973633-6.7231445,4.1132813-9.0410156,7.453125c-1.5776367,2.3466797-2.1049805,6.4780273-2.2695313,9.5317383  c-0.1411133,2.668457,0.0214844,5.722168,0.2324219,7.4355469c0.1201172,0.9301758,0.8222656,1.1401367,2.6640625,1.1401367  c0.6079102,0,1.340332-0.0229492,2.2167969-0.050293c1.1420898-0.0351563,2.4291992-0.0800781,3.8476563-0.0751953  l2.4594727,0.0068359c2.9560547,0.0107422,7.0039063,0.0224609,8.6762695-0.0068359l3.3925781,0.019043l2.3652344-0.0063477  c1.0292969-0.0039063,2.3510742-0.0092773,4.753418-0.0126953c0.9335938-0.0029297,1.8642578,0.0078125,2.7280273,0.0161133  c4.784668,0.043457,6.0683594,0.0581055,6.2265625-1.222168c0.1816406-1.4868164,0.1835938-3.9243164,0.0058594-7.2446289  c-0.1630859-3.0493164-0.6889648-7.1782227-2.277832-9.543457c-2.3120117-3.3291016-4.1894531-5.6455078-9.0322266-7.440918  c-0.0273438-0.0101929-0.0553589-0.0054932-0.0830078-0.0131226c-0.0670166-0.0186768-0.1324463-0.0274048-0.2019043-0.0318604  c-0.0632935-0.0039673-0.1234131-0.0056763-0.1853027,0.0021973c-0.0623169,0.0076294-0.1206665,0.024292-0.1814575,0.0439453  c-0.0653076,0.0212402-0.1258545,0.0454102-0.1854858,0.0795288c-0.0256348,0.0145264-0.0546265,0.0170288-0.0793457,0.0340576  l-0.5200806,0.3595581c-0.5424194-0.0876465-1.2323608-0.1755371-2.1122437-0.2819214  c-0.5297852-0.0639648-1.0703125-0.1293945-1.5112305-0.1918945c-0.0473633-0.9018555-0.0732422-1.815918-0.0668945-2.3779297  c1.6176758-0.1469727,5.2543945-0.6601563,8.2797852-2.4013672c1.7817383-1.0249023,3.2202148-2.2416992,5.6118164-5.640625  c0.1044922,0.0087891,0.2280273,0.0229492,0.3310547,0.034668c0.8530273,0.0991211,2.2827148,0.2607422,3.6655273-0.6181641  C74.15625,50.5791016,74.8447266,47.777832,74.2133789,45.8291016z M43.4374924,74.2436523l-3.0897141-8.1403809  c0.3266602-0.1594238,0.6660767-0.3162842,1.0336304-0.4685669c0.1851807,0.284668,0.4954224,0.4605103,0.8300171,0.4605103  c0.0932007,0,0.1872559-0.0222168,0.2803345-0.0498047l5.8637085,4.0151367L43.4374924,74.2436523z M51,82.75  c0,0.5522461-0.4477539,1-1,1s-1-0.4477539-1-1v-0.5c0-0.5522461,0.4477539-1,1-1s1,0.4477539,1,1V82.75z M51,78.8852539  c0,0.5522461-0.4477539,1-1,1s-1-0.4477539-1-1v-0.8408203c0-0.5522461,0.4477539-1,1-1s1,0.4477539,1,1V78.8852539z M51,74.6801758  c0,0.5522461-0.4477539,1-1,1s-1-0.4477539-1-1v-0.8413086c0-0.5522461,0.4477539-1,1-1s1,0.4477539,1,1V74.6801758z   M64.5615234,81.75c0.5522461,0,1,0.4477539,1,1s-0.4477539,1-1,1h-8.6132813c-0.5522461,0-1-0.4477539-1-1s0.4477539-1,1-1  H64.5615234z M57.4396973,66.046814c0.0911865,0.026123,0.1832886,0.0484009,0.2741699,0.0484009  c0.3342896,0,0.644043-0.175354,0.8294067-0.4590454c0.3911133,0.1621704,0.7515259,0.3292847,1.0965576,0.4996338  l-3.0773392,8.1078491l-4.9224777-4.1868896L57.4396973,66.046814z M70.1264648,50.7529297  c-0.7895508,0.5014648-1.6293945,0.4057617-2.3691406,0.3212891c-0.6757813-0.0766602-1.5141602-0.1728516-2.0063477,0.5327148  c-2.2939453,3.3022461-3.5834961,4.4194336-5.1611328,5.3261719C57.09375,58.9462891,52.4482422,59.125,52.4013672,59.1264648  c-0.3720703,0.0126953-0.7070313,0.230957-0.8681641,0.5664063c-0.0927734,0.1933594-0.375,0.78125-0.1064453,4.6743164  c0.0302734,0.440918,0.3461914,0.8095703,0.7773438,0.9067383c0.5076904,0.1142578,1.3966675,0.2236328,2.3463745,0.338501  l-4.5534058,3.1483154l-4.6031494-3.1520996c0.934082-0.1136475,1.807373-0.2215576,2.3092041-0.3347168  c0.4311523-0.097168,0.7475586-0.4658203,0.777832-0.9072266c0.2675781-3.8920898-0.0141602-4.4799805-0.1064453-4.6728516  c-0.1611328-0.3359375-0.4960938-0.5541992-0.8681641-0.5673828c-0.0410156-0.0014648-4.1552734-0.1669922-7.6464844-2.1777344  c-1.8168945-1.046875-3.4995117-2.1713867-5.703125-5.3427734c-0.4907227-0.7045898-1.3310547-0.6088867-2.0053711-0.5317383  c-0.7412109,0.0844727-1.5810547,0.1801758-2.3745117-0.3237305c-1.6293945-1.0263672-2.4428711-2.4296875-2.0717773-3.574707  c0.2685547-0.8290405,1.0911865-1.3831177,2.2445679-1.5723267c0.0505371,0.3151855,0.0841675,0.6450195,0.0942993,0.9702759  c0.0117188,0.3876953,0.2470703,0.7348633,0.6035156,0.8886719l1.5361328,0.6621094  c0.1279297,0.0546875,0.262207,0.081543,0.3959961,0.081543c0.2583008,0,0.5126953-0.1000977,0.7036133-0.2895508  c0.2900391-0.2871094,0.3764648-0.7216797,0.2182617-1.0976563c-0.0083008-0.0205078-0.8525391-2.0561523-0.7319336-4.0683594  c0.0703125-1.112793-0.0366211-3.706543-0.1069336-5.1538086c1.0532227-0.0595703,2.8193359-0.2075195,4.9345703-0.5771484  c-0.6318359,0.5463867-1.0756836,0.8740234-1.0844727,0.8808594c-0.4321289,0.3168945-0.5375977,0.9189453-0.2387695,1.3637695  c0.5512695,0.8212891,1.5371094,0.6816406,5.1806641-0.2182617c0.5522461-0.1362305,1.0444336-0.2583008,1.3813477-0.3266602  c8.7797852-1.7924805,13.1767578-7.8237305,14.440918-10.2709961c1.0986328,0.3432617,2.605957,1.0112305,4.4047852,2.3081055  c2.5463867,1.8364258,5.0327148,4.0185547,5.0327148,8.6708984c0,1.6669922-0.793457,6.6933594-0.8017578,6.7436523  c-0.0625,0.3950195,0.1162109,0.7890625,0.4541016,1.0024414c0.3369141,0.2133789,0.7700195,0.2045898,1.1000977-0.0214844  l0.8139648-0.5595703c0.2617188-0.1801758,0.4228516-0.4912109,0.4335938-0.8085938  c0.0010986-0.0338135,0.0339355-0.513916,0.3841553-1.0892334c1.6350708-0.0644531,2.8317261,0.5762329,3.2120361,1.7508545  C72.703125,47.6577148,72.1811523,49.4589844,70.1264648,50.7529297z"/>
</svg>
